<svg width="24" height="24" viewBox="0 0 24 24" fill="none" xmlns="http://www.w3.org/2000/svg">
<path fill-rule="evenodd" clip-rule="evenodd" d="M16.28 11.47C16.4205 11.6106 16.4994 11.8012 16.4994 12C16.4994 12.1987 16.4205 12.3893 16.28 12.53L8.78003 20.03C8.63785 20.1625 8.44981 20.2346 8.25551 20.2311C8.06121 20.2277 7.87582 20.149 7.73841 20.0116C7.60099 19.8742 7.52228 19.6888 7.51885 19.4945C7.51543 19.3002 7.58755 19.1121 7.72003 18.97L14.69 12L7.72003 5.02997C7.58755 4.88779 7.51543 4.69975 7.51885 4.50545C7.52228 4.31114 7.60099 4.12576 7.73841 3.98835C7.87582 3.85093 8.06121 3.77222 8.25551 3.76879C8.44981 3.76537 8.63785 3.83749 8.78003 3.96997L16.28 11.47Z" fill="#079211"/>
</svg>
