<svg width="106" height="21" viewBox="0 0 106 21" fill="none" xmlns="http://www.w3.org/2000/svg">
<path d="M4.90245 20H0.618364L7.14606 1.09091H12.2981L18.8165 20H14.5324L9.79592 5.41193H9.64819L4.90245 20ZM4.6347 12.5675H14.754V15.6882H4.6347V12.5675ZM24.9518 1.09091V20H21.0186V1.09091H24.9518ZM28.1026 20V5.81818H32.0358V20H28.1026ZM30.0784 3.99006C29.4937 3.99006 28.992 3.79616 28.5734 3.40838C28.161 3.01444 27.9548 2.54356 27.9548 1.99574C27.9548 1.45407 28.161 0.989346 28.5734 0.601562C28.992 0.207622 29.4937 0.0106524 30.0784 0.0106524C30.6632 0.0106524 31.1617 0.207622 31.5742 0.601562C31.9927 0.989346 32.202 1.45407 32.202 1.99574C32.202 2.54356 31.9927 3.01444 31.5742 3.40838C31.1617 3.79616 30.6632 3.99006 30.0784 3.99006ZM42.813 5.81818V8.77273H34.0601V5.81818H42.813ZM36.0637 20V4.79332C36.0637 3.76539 36.2637 2.91288 36.6638 2.23579C37.0701 1.55871 37.624 1.0509 38.3258 0.712357C39.0275 0.373815 39.8246 0.204544 40.7171 0.204544C41.3203 0.204544 41.8712 0.250709 42.3698 0.34304C42.8745 0.435369 43.25 0.518465 43.4962 0.592329L42.7945 3.54688C42.6406 3.49763 42.4498 3.45147 42.2221 3.40838C42.0005 3.36529 41.7727 3.34375 41.5388 3.34375C40.9602 3.34375 40.557 3.47917 40.3293 3.75C40.1016 4.01468 39.9877 4.38707 39.9877 4.86719V20H36.0637ZM45.2158 20V5.81818H49.0291V8.29261H49.1768C49.4353 7.4124 49.8693 6.74763 50.4786 6.2983C51.088 5.8428 51.7897 5.61506 52.5837 5.61506C52.7807 5.61506 52.9931 5.62737 53.2208 5.65199C53.4486 5.67661 53.6486 5.71046 53.821 5.75355V9.24361C53.6363 9.18821 53.3809 9.13897 53.0546 9.09588C52.7284 9.05279 52.4299 9.03125 52.159 9.03125C51.5804 9.03125 51.0634 9.15743 50.6079 9.4098C50.1586 9.65601 49.8015 10.0007 49.5369 10.4439C49.2783 10.8871 49.1491 11.398 49.1491 11.9766V20H45.2158ZM61.6574 20.277C60.1986 20.277 58.9429 19.9815 57.8904 19.3906C56.844 18.7936 56.0376 17.9503 55.4713 16.8608C54.9051 15.7652 54.6219 14.4695 54.6219 12.9737C54.6219 11.5149 54.9051 10.2346 55.4713 9.13281C56.0376 8.03101 56.8347 7.17235 57.8627 6.55682C58.8968 5.94129 60.1094 5.63352 61.5005 5.63352C62.4361 5.63352 63.307 5.78433 64.1134 6.08594C64.9259 6.38139 65.6338 6.82765 66.237 7.42472C66.8463 8.02178 67.3203 8.77273 67.6588 9.67756C67.9974 10.5762 68.1667 11.6288 68.1667 12.8352V13.9155H56.1915V11.478H64.4642C64.4642 10.9117 64.3411 10.41 64.0949 9.97301C63.8487 9.53598 63.5071 9.19437 63.0701 8.94815C62.6392 8.69579 62.1375 8.5696 61.5651 8.5696C60.968 8.5696 60.4387 8.7081 59.977 8.98508C59.5215 9.25592 59.1645 9.62216 58.906 10.0838C58.6475 10.5393 58.5151 11.0471 58.509 11.6072V13.9247C58.509 14.6264 58.6383 15.2327 58.8968 15.7436C59.1615 16.2545 59.5338 16.6484 60.014 16.9254C60.4941 17.2024 61.0634 17.3409 61.7221 17.3409C62.1591 17.3409 62.5592 17.2794 62.9223 17.1562C63.2855 17.0331 63.5963 16.8485 63.8549 16.6023C64.1134 16.3561 64.3104 16.0545 64.4458 15.6974L68.0836 15.9375C67.8989 16.8116 67.5204 17.5748 66.9479 18.2273C66.3816 18.8736 65.6491 19.3783 64.7505 19.7415C63.8579 20.0985 62.8269 20.277 61.6574 20.277ZM70.6596 20V17.6548L77.6027 9.05895V8.95739H70.8996V5.81818H82.3392V8.37571L75.8208 16.7592V16.8608H82.5793V20H70.6596ZM89.631 20.2678C88.7261 20.2678 87.9198 20.1108 87.2119 19.7969C86.5041 19.4768 85.9439 19.0059 85.5315 18.3842C85.1253 17.7564 84.9222 16.9747 84.9222 16.0391C84.9222 15.2512 85.0668 14.5895 85.3561 14.054C85.6454 13.5185 86.0394 13.0876 86.5379 12.7614C87.0365 12.4351 87.6028 12.1889 88.2368 12.0227C88.8769 11.8565 89.5479 11.7396 90.2496 11.6719C91.0744 11.5857 91.7392 11.5057 92.2439 11.4318C92.7486 11.3518 93.1149 11.2348 93.3426 11.081C93.5704 10.9271 93.6842 10.6993 93.6842 10.3977V10.3423C93.6842 9.75758 93.4996 9.30516 93.1303 8.98508C92.7671 8.66501 92.2501 8.50497 91.5791 8.50497C90.8713 8.50497 90.3081 8.66193 89.8895 8.97585C89.4709 9.28362 89.1939 9.6714 89.0585 10.1392L85.4207 9.84375C85.6054 8.98201 85.9686 8.23722 86.5102 7.60938C87.0519 6.97538 87.7505 6.48911 88.6061 6.15057C89.4679 5.80587 90.465 5.63352 91.5976 5.63352C92.3855 5.63352 93.1395 5.72585 93.8597 5.91051C94.586 6.09517 95.2292 6.38139 95.7894 6.76918C96.3556 7.15696 96.8019 7.65554 97.1281 8.26491C97.4544 8.86813 97.6175 9.59138 97.6175 10.4347V20H93.8874V18.0334H93.7766C93.5488 18.4766 93.2441 18.8674 92.8625 19.206C92.4809 19.5384 92.0223 19.8 91.4868 19.9908C90.9513 20.1754 90.3327 20.2678 89.631 20.2678ZM90.7574 17.5533C91.336 17.5533 91.8469 17.4394 92.2901 17.2116C92.7332 16.9777 93.081 16.6638 93.3334 16.2699C93.5858 15.8759 93.7119 15.4297 93.7119 14.9311V13.4261C93.5888 13.5062 93.4196 13.58 93.2041 13.6477C92.9948 13.7093 92.7579 13.7678 92.4932 13.8232C92.2285 13.8724 91.9638 13.9186 91.6992 13.9616C91.4345 13.9986 91.1944 14.0324 90.979 14.0632C90.5173 14.1309 90.1142 14.2386 89.7695 14.3864C89.4248 14.5341 89.157 14.7341 88.9662 14.9865C88.7754 15.2327 88.68 15.5405 88.68 15.9098C88.68 16.4453 88.8739 16.8546 89.2617 17.1378C89.6556 17.4148 90.1542 17.5533 90.7574 17.5533Z" fill="white"/>
<path d="M102.968 20.2401C102.359 20.2401 101.835 20.0246 101.398 19.5938C100.967 19.1567 100.752 18.6335 100.752 18.0241C100.752 17.4209 100.967 16.9039 101.398 16.473C101.835 16.0421 102.359 15.8267 102.968 15.8267C103.559 15.8267 104.076 16.0421 104.519 16.473C104.962 16.9039 105.184 17.4209 105.184 18.0241C105.184 18.4304 105.079 18.8028 104.87 19.1413C104.667 19.4737 104.399 19.7415 104.067 19.9446C103.734 20.1416 103.368 20.2401 102.968 20.2401Z" fill="#079211"/>
</svg>
