<svg width="98" height="20" viewBox="0 0 98 20" fill="none" xmlns="http://www.w3.org/2000/svg">
<path d="M4.52557 19H0.571023L6.59659 1.54545H11.3523L17.3693 19H13.4148L9.04261 5.53409H8.90625L4.52557 19ZM4.27841 12.1392H13.6193V15.0199H4.27841V12.1392ZM23.0327 1.54545V19H19.402V1.54545H23.0327ZM25.9411 19V5.90909H29.5717V19H25.9411ZM27.7649 4.22159C27.2251 4.22159 26.7621 4.04261 26.3757 3.68466C25.995 3.32102 25.8047 2.88636 25.8047 2.38068C25.8047 1.88068 25.995 1.4517 26.3757 1.09375C26.7621 0.730113 27.2251 0.548295 27.7649 0.548295C28.3047 0.548295 28.7649 0.730113 29.1456 1.09375C29.532 1.4517 29.7251 1.88068 29.7251 2.38068C29.7251 2.88636 29.532 3.32102 29.1456 3.68466C28.7649 4.04261 28.3047 4.22159 27.7649 4.22159ZM39.5199 5.90909V8.63636H31.4403V5.90909H39.5199ZM33.2898 19V4.96307C33.2898 4.0142 33.4744 3.22727 33.8438 2.60227C34.2188 1.97727 34.7301 1.50852 35.3778 1.19602C36.0256 0.883522 36.7614 0.727272 37.5852 0.727272C38.142 0.727272 38.6506 0.769886 39.1108 0.855114C39.5767 0.940341 39.9233 1.01705 40.1506 1.08523L39.5028 3.8125C39.3608 3.76705 39.1847 3.72443 38.9744 3.68466C38.7699 3.64489 38.5597 3.625 38.3438 3.625C37.8097 3.625 37.4375 3.75 37.2273 4C37.017 4.24432 36.9119 4.58807 36.9119 5.03125V19H33.2898ZM41.7379 19V5.90909H45.2578V8.19318H45.3942C45.6328 7.38068 46.0334 6.76705 46.5959 6.35227C47.1584 5.93182 47.8061 5.72159 48.5391 5.72159C48.7209 5.72159 48.9169 5.73295 49.1271 5.75568C49.3374 5.77841 49.522 5.80966 49.6811 5.84943V9.07102C49.5107 9.01989 49.2749 8.97443 48.9737 8.93466C48.6726 8.89489 48.397 8.875 48.147 8.875C47.6129 8.875 47.1357 8.99148 46.7152 9.22443C46.3004 9.4517 45.9709 9.76989 45.7266 10.179C45.4879 10.5881 45.3686 11.0597 45.3686 11.5938V19H41.7379ZM56.9148 19.2557C55.5682 19.2557 54.4091 18.983 53.4375 18.4375C52.4716 17.8864 51.7273 17.108 51.2045 16.1023C50.6818 15.0909 50.4205 13.8949 50.4205 12.5142C50.4205 11.1676 50.6818 9.9858 51.2045 8.96875C51.7273 7.9517 52.4631 7.15909 53.4119 6.59091C54.3665 6.02273 55.4858 5.73864 56.7699 5.73864C57.6335 5.73864 58.4375 5.87784 59.1818 6.15625C59.9318 6.42898 60.5852 6.84091 61.142 7.39205C61.7045 7.94318 62.142 8.63636 62.4545 9.47159C62.767 10.3011 62.9233 11.2727 62.9233 12.3864V13.3835H51.8693V11.1335H59.5057C59.5057 10.6108 59.392 10.1477 59.1648 9.74432C58.9375 9.34091 58.6222 9.02557 58.2188 8.7983C57.821 8.56534 57.358 8.44886 56.8295 8.44886C56.2784 8.44886 55.7898 8.5767 55.3636 8.83239C54.9432 9.08239 54.6136 9.42045 54.375 9.84659C54.1364 10.267 54.0142 10.7358 54.0085 11.2528V13.392C54.0085 14.0398 54.1278 14.5994 54.3665 15.071C54.6108 15.5426 54.9545 15.9062 55.3977 16.1619C55.8409 16.4176 56.3665 16.5455 56.9744 16.5455C57.3778 16.5455 57.7472 16.4886 58.0824 16.375C58.4176 16.2614 58.7045 16.0909 58.9432 15.8636C59.1818 15.6364 59.3636 15.358 59.4886 15.0284L62.8466 15.25C62.6761 16.0568 62.3267 16.7614 61.7983 17.3636C61.2756 17.9602 60.5994 18.4261 59.7699 18.7614C58.946 19.0909 57.9943 19.2557 56.9148 19.2557ZM65.2244 19V16.8352L71.6335 8.90057V8.80682H65.446V5.90909H76.0057V8.26989L69.9886 16.0085V16.1023H76.2273V19H65.2244ZM82.7365 19.2472C81.9013 19.2472 81.157 19.1023 80.5036 18.8125C79.8501 18.517 79.3331 18.0824 78.9524 17.5085C78.5774 16.929 78.3899 16.2074 78.3899 15.3438C78.3899 14.6165 78.5234 14.0057 78.7905 13.5114C79.0575 13.017 79.4212 12.6193 79.8814 12.3182C80.3416 12.017 80.8643 11.7898 81.4496 11.6364C82.0405 11.483 82.6598 11.375 83.3075 11.3125C84.0689 11.233 84.6825 11.1591 85.1484 11.0909C85.6143 11.017 85.9524 10.9091 86.1626 10.767C86.3729 10.625 86.478 10.4148 86.478 10.1364V10.0852C86.478 9.54545 86.3075 9.12784 85.9666 8.83239C85.6314 8.53693 85.1541 8.3892 84.5348 8.3892C83.8814 8.3892 83.3615 8.53409 82.9751 8.82386C82.5888 9.10795 82.3331 9.46591 82.2081 9.89773L78.8501 9.625C79.0206 8.82955 79.3558 8.14205 79.8558 7.5625C80.3558 6.97727 81.0007 6.52841 81.7905 6.21591C82.5859 5.89773 83.5064 5.73864 84.5518 5.73864C85.2791 5.73864 85.9751 5.82386 86.6399 5.99432C87.3104 6.16477 87.9041 6.42898 88.4212 6.78693C88.9439 7.14489 89.3558 7.60511 89.657 8.16761C89.9581 8.72443 90.1087 9.39205 90.1087 10.1705V19H86.6655V17.1847H86.5632C86.353 17.5938 86.0717 17.9545 85.7195 18.267C85.3672 18.5739 84.9439 18.8153 84.4496 18.9915C83.9553 19.1619 83.3842 19.2472 82.7365 19.2472ZM83.7763 16.7415C84.3104 16.7415 84.782 16.6364 85.1911 16.4261C85.6001 16.2102 85.9212 15.9205 86.1541 15.5568C86.3871 15.1932 86.5036 14.7812 86.5036 14.321V12.9318C86.3899 13.0057 86.2337 13.0739 86.0348 13.1364C85.8416 13.1932 85.6229 13.2472 85.3786 13.2983C85.1342 13.3437 84.8899 13.3864 84.6456 13.4261C84.4013 13.4602 84.1797 13.4915 83.9808 13.5199C83.5547 13.5824 83.1825 13.6818 82.8643 13.8182C82.5462 13.9545 82.299 14.1392 82.1229 14.3722C81.9467 14.5994 81.8587 14.8835 81.8587 15.2244C81.8587 15.7188 82.0376 16.0966 82.3956 16.358C82.7592 16.6136 83.2195 16.7415 83.7763 16.7415Z" fill="white"/>
<path d="M95.0476 19.2216C94.4851 19.2216 94.0021 19.0227 93.5987 18.625C93.201 18.2216 93.0021 17.7386 93.0021 17.1761C93.0021 16.6193 93.201 16.142 93.5987 15.7443C94.0021 15.3466 94.4851 15.1477 95.0476 15.1477C95.593 15.1477 96.0703 15.3466 96.4794 15.7443C96.8885 16.142 97.093 16.6193 97.093 17.1761C97.093 17.5511 96.9964 17.8949 96.8033 18.2074C96.6158 18.5142 96.3686 18.7614 96.0618 18.9489C95.755 19.1307 95.4169 19.2216 95.0476 19.2216Z" fill="#079211"/>
</svg>
